<svg height='100px' width='100px'  fill="#000000" xmlns="http://www.w3.org/2000/svg" xmlns:xlink="http://www.w3.org/1999/xlink" version="1.1" x="0px" y="0px" viewBox="0 0 63 63" style="enable-background:new 0 0 63 63;" xml:space="preserve"><g><path d="M39.5,3c6,0,7-3,7-3"></path><g><path d="M36.5,13h-2v-3c0-0.553-0.448-1-1-1h-3V4c0-0.553-0.448-1-1-1h-6c-0.552,0-1,0.447-1,1v5h-3c-0.552,0-1,0.447-1,1v3h-2    c-1.654,0-3,1.346-3,3v44c0,1.654,1.346,3,3,3h20c1.654,0,3-1.346,3-3V16C39.5,14.346,38.154,13,36.5,13z M24.5,5h4v4h-4V5z     M20.5,11h3h6h3v2h-12V11z M36.5,61h-20c-0.551,0-1-0.448-1-1v-2h10c0.552,0,1-0.447,1-1s-0.448-1-1-1h-10V19h3    c0.552,0,1-0.447,1-1s-0.448-1-1-1h-3v-1c0-0.552,0.449-1,1-1h3h14h3c0.551,0,1,0.448,1,1v1h-11c-0.552,0-1,0.447-1,1s0.448,1,1,1    h11v37h-4c-0.552,0-1,0.447-1,1s0.448,1,1,1h4v2C37.5,60.552,37.051,61,36.5,61z"></path><path d="M37.5,7h5c0.552,0,1-0.447,1-1s-0.448-1-1-1h-5c-0.552,0-1,0.447-1,1S36.948,7,37.5,7z"></path><path d="M39.5,8c-0.552,0-1,0.447-1,1s0.448,1,1,1c5.09,0,6.022,2.243,6.051,2.316C45.691,12.735,46.081,13,46.5,13    c0.104,0,0.211-0.017,0.316-0.052c0.524-0.174,0.807-0.74,0.632-1.265C47.398,11.533,46.144,8,39.5,8z"></path><path d="M33.5,7c0.26,0,0.52-0.11,0.71-0.29C34.39,6.519,34.5,6.26,34.5,6s-0.11-0.521-0.29-0.71c-0.37-0.37-1.05-0.37-1.42,0    C32.61,5.479,32.5,5.74,32.5,6s0.11,0.519,0.29,0.71C32.98,6.89,33.24,7,33.5,7z"></path><path d="M48.5,5h-2c-0.552,0-1,0.447-1,1s0.448,1,1,1h2c0.552,0,1-0.447,1-1S49.052,5,48.5,5z"></path><path d="M35.481,35.842c-0.041-2.324-0.988-4.435-2.489-6.013c-0.04-0.065-0.071-0.136-0.128-0.193    c-0.051-0.052-0.116-0.078-0.174-0.116c-1.617-1.545-3.799-2.502-6.187-2.502l-0.16,0.001c-4.952,0.088-8.911,4.188-8.824,9.14    c0.041,2.323,0.987,4.434,2.488,6.011c0.041,0.067,0.072,0.138,0.13,0.195c0.052,0.052,0.117,0.079,0.176,0.117    c1.618,1.545,3.799,2.501,6.187,2.501l0.158-0.001C31.61,44.894,35.568,40.794,35.481,35.842z M26.378,29.019l0.125-0.001    c1.555,0,2.996,0.526,4.163,1.402l-2.272,2.273c-0.145-0.119-0.299-0.224-0.465-0.314l0.466-0.932    c0.247-0.494,0.047-1.095-0.447-1.342c-0.496-0.246-1.095-0.047-1.342,0.447L26.5,30.764l-0.106-0.211    c-0.247-0.494-0.847-0.693-1.342-0.447c-0.494,0.247-0.694,0.848-0.447,1.342l0.466,0.932C24.14,32.889,23.5,33.865,23.5,35v2.586    l-2.58,2.58c-0.852-1.135-1.375-2.53-1.402-4.043C19.451,32.273,22.528,29.087,26.378,29.019z M26.5,34    c0.168,0,0.32,0.053,0.459,0.126l-1.459,1.46V35C25.5,34.448,25.949,34,26.5,34z M27.5,36.414V38c0,0.552-0.449,1-1,1    c-0.429,0-0.789-0.274-0.93-0.655L27.5,36.414z M26.623,42.981l-0.124,0.001c-1.556,0-2.997-0.526-4.164-1.402l1.78-1.78    c0.548,0.725,1.409,1.2,2.385,1.2c1.654,0,3-1.346,3-3v-3c0-0.183-0.023-0.359-0.054-0.532l2.633-2.634    c0.853,1.135,1.375,2.53,1.401,4.043C33.549,39.727,30.472,42.913,26.623,42.981z"></path><path d="M22.5,19c0.26,0,0.52-0.11,0.71-0.29c0.18-0.19,0.29-0.45,0.29-0.71s-0.11-0.521-0.29-0.71c-0.37-0.37-1.05-0.37-1.42,0    c-0.18,0.189-0.29,0.45-0.29,0.71s0.11,0.52,0.29,0.71C21.98,18.89,22.24,19,22.5,19z"></path><path d="M28.79,56.29c-0.18,0.189-0.29,0.45-0.29,0.71s0.11,0.52,0.29,0.71C28.98,57.89,29.24,58,29.5,58    c0.26,0,0.52-0.11,0.71-0.29c0.18-0.19,0.29-0.45,0.29-0.71s-0.11-0.521-0.29-0.71C29.84,55.92,29.16,55.92,28.79,56.29z"></path></g></g></svg>